<?xml version="1.0" encoding="iso-8859-1"?>
<!-- Generator: Adobe Illustrator 19.0.0, SVG Export Plug-In . SVG Version: 6.00 Build 0)  -->
<svg version="1.1" id="Layer_1" xmlns="http://www.w3.org/2000/svg" xmlns:xlink="http://www.w3.org/1999/xlink" x="0px" y="0px"
	 viewBox="0 0 512 512" style="enable-background:new 0 0 512 512;" xml:space="preserve">
<g>
	<g>
		<polygon points="478.609,55.652 478.609,155.826 445.217,155.826 445.217,189.217 478.609,189.217 478.609,289.391 
			378.435,289.391 378.435,256 345.043,256 345.043,289.391 244.87,289.391 244.87,256 211.478,256 211.478,289.391 
			100.174,289.391 100.174,256 66.783,256 66.783,289.391 33.391,289.391 33.391,189.217 66.783,189.217 66.783,155.826 
			33.391,155.826 33.391,55.652 0,55.652 0,456.348 33.391,456.348 33.391,322.783 166.957,322.783 166.957,356.174 
			200.348,356.174 200.348,322.783 311.652,322.783 311.652,356.174 345.043,356.174 345.043,322.783 478.609,322.783 
			478.609,356.174 445.217,356.174 445.217,389.565 478.609,389.565 478.609,456.348 512,456.348 512,55.652 		"/>
	</g>
</g>
<g>
	<g>
		<rect x="100.174" y="222.609" width="33.391" height="33.391"/>
	</g>
</g>
<g>
	<g>
		<rect x="133.565" y="189.217" width="33.391" height="33.391"/>
	</g>
</g>
<g>
	<g>
		<rect x="166.957" y="155.826" width="33.391" height="33.391"/>
	</g>
</g>
<g>
	<g>
		<rect x="200.348" y="122.435" width="33.391" height="33.391"/>
	</g>
</g>
<g>
	<g>
		<rect x="233.739" y="89.044" width="33.391" height="33.391"/>
	</g>
</g>
<g>
	<g>
		<rect x="66.783" y="122.435" width="33.391" height="33.391"/>
	</g>
</g>
<g>
	<g>
		<rect x="100.174" y="89.044" width="33.391" height="33.391"/>
	</g>
</g>
<g>
	<g>
		<polygon points="33.391,22.261 33.391,55.652 133.565,55.652 133.565,89.044 166.957,89.044 166.957,55.652 267.13,55.652 
			267.13,89.044 300.522,89.044 300.522,55.652 411.826,55.652 411.826,89.044 445.217,89.044 445.217,55.652 478.609,55.652 
			478.609,22.261 		"/>
	</g>
</g>
<g>
	<g>
		<rect x="244.87" y="222.609" width="33.391" height="33.391"/>
	</g>
</g>
<g>
	<g>
		<rect x="278.261" y="189.217" width="33.391" height="33.391"/>
	</g>
</g>
<g>
	<g>
		<rect x="311.652" y="155.826" width="33.391" height="33.391"/>
	</g>
</g>
<g>
	<g>
		<rect x="345.043" y="122.435" width="33.391" height="33.391"/>
	</g>
</g>
<g>
	<g>
		<rect x="378.435" y="89.044" width="33.391" height="33.391"/>
	</g>
</g>
<g>
	<g>
		<rect x="378.435" y="222.609" width="33.391" height="33.391"/>
	</g>
</g>
<g>
	<g>
		<rect x="411.826" y="189.217" width="33.391" height="33.391"/>
	</g>
</g>
<g>
	<g>
		<rect x="100.174" y="389.565" width="33.391" height="33.391"/>
	</g>
</g>
<g>
	<g>
		<rect x="133.565" y="356.174" width="33.391" height="33.391"/>
	</g>
</g>
<g>
	<g>
		<rect x="244.87" y="389.565" width="33.391" height="33.391"/>
	</g>
</g>
<g>
	<g>
		<rect x="278.261" y="356.174" width="33.391" height="33.391"/>
	</g>
</g>
<g>
	<g>
		<polygon points="411.826,456.348 411.826,422.957 378.435,422.957 378.435,456.348 244.87,456.348 244.87,422.957 
			211.478,422.957 211.478,456.348 100.174,456.348 100.174,422.957 66.783,422.957 66.783,456.348 33.391,456.348 33.391,489.739 
			478.609,489.739 478.609,456.348 		"/>
	</g>
</g>
<g>
	<g>
		<rect x="411.826" y="389.565" width="33.391" height="33.391"/>
	</g>
</g>
<g>
</g>
<g>
</g>
<g>
</g>
<g>
</g>
<g>
</g>
<g>
</g>
<g>
</g>
<g>
</g>
<g>
</g>
<g>
</g>
<g>
</g>
<g>
</g>
<g>
</g>
<g>
</g>
<g>
</g>
</svg>
